<svg xmlns="http://www.w3.org/2000/svg" viewBox="0 0 131.94 131.94"><defs><style>.cls-1{fill:#fef5fa;}.cls-2{fill:#010101;}.cls-2,.cls-3,.cls-4,.cls-5{fill-rule:evenodd;}.cls-3{fill:#dbdef1;}.cls-4{fill:#bec0e2;}.cls-5{fill:#60bdd6;}</style></defs><g id="Ebene_2" data-name="Ebene 2"><g id="Ebene_1-2" data-name="Ebene 1"><circle class="cls-1" cx="65.97" cy="65.97" r="65.97"/><path class="cls-2" d="M12.5,79.63c2-2.23,3.23-7.95,1.5-11.31C13.41,71.86,12.3,76,12.5,79.63Z"/><path class="cls-2" d="M18.26,66c-.69.81-2.15.83-2.77,1.71,1.54,4.41.21,10.48-2.13,13,1.72.62,2.62,2.07,4.47,2.56C21.81,80,21.49,69.76,18.26,66Z"/><path class="cls-2" d="M113.25,79.2a22.91,22.91,0,0,0,3-1.7c-.65-4-.57-8.68-.85-13a24.72,24.72,0,0,0-3.2-1.5C112.7,68.23,112.94,73.75,113.25,79.2Z"/><path class="cls-2" d="M91.32,42.06c-3.87.85-7.91,1.67-11.93,2.56-8.64,1.92-17.59,2.07-26.63,1.71-10.4-.42-21.39,0-29.18-2.78-1.16-.41-2.4-1.12-3-.85-.32,7.44-.71,14.8-1.28,22,2.54,4.7,4,10.7,1.92,16.22-.62,1.68-2.67,2.68-3.2,4.06-.72,1.88-.27,4.38-.63,6.19,6.33,2.54,12.93,6.65,20.87,8.32,8.12,1.71,17.52,2.14,27.05,2.14,9,0,17.35-2.12,25.35-3.84,8.16-1.77,15.87-4.15,21.51-7.9-1.29-17.21-1.55-35.45-4-51.45C103.33,40.89,97.48,40.71,91.32,42.06Z"/><path class="cls-2" d="M84.71,35.23c-6,2.89-17.16,3.42-26.2,3.41-3.67,0-8.49-.06-10.22-2.77.3-1.41,1-2.46.85-4.27-11,1.55-20.64,4.36-28.54,9,8.47,4.43,21.14,3.57,32.16,4a112.39,112.39,0,0,0,29.18-2.35c8.65-1.85,17.06-2.86,24.93-5.12-5.69-4.19-14.28-5.47-23-6.62C84,32.11,85.5,33.4,84.71,35.23Z"/><path class="cls-2" d="M58.51,27.12c-1.81-.3-3.8-1.17-6-.85a71.88,71.88,0,0,0-2.77,10c11,.9,24.18.78,33.23-2.14A39.53,39.53,0,0,0,79.18,25C73.59,26.69,65.29,28.24,58.51,27.12Z"/><path class="cls-2" d="M60,23.06c-2.57.49-5.18.62-6.81,1.92,8,.71,19.09,1.23,25.56-1.92C73.29,20.53,65.55,22,60,23.06Z"/><path class="cls-2" d="M84.71,101.41c-29.76,4.14-51.19-.59-56-2.57C24,96.93,19,95.49,15.49,92.23c.32-2.52-.29-4.94.42-7.26-1.87-1.54-4.29-2.53-5.54-4.7.8-4.46.05-10.13,1.92-13.23,1.19-2,3.67-1.6,5.54-3-.58-4.89.16-11,.43-16.87.08-1.93-.47-4.91,0-6.61.95-3.49,10.23-6.15,13.63-7.47C37.36,31,43.5,30.53,49.14,29.25c.81-2,1.36-4.32,2.56-6,5.95-1.91,21.59-6.78,27.69-2.35,2.27,1.65,2.45,4.82,4,7.47"/><path class="cls-2" d="M83.43,28.4c11,.6,20.43,2.87,26.84,8.11,1.32,7.43,1.72,15.78,2.35,23.91,1.19,1.11,3.73,1,4.68,3s.51,7,.64,10.67c0,1.13.47,3.21.22,4.06-.67,2.23-3.55,2.48-4,3.84.33,5.13,1,9-2.34,11.1-6.59,4-18.82,6.32-27.06,8.33"/><path class="cls-3" d="M78.75,23.06C72.28,26.21,61.23,25.69,53.19,25c1.63-1.3,4.24-1.43,6.81-1.92,5.56-1,13.29-2.53,18.75,0Z"/><path class="cls-3" d="M79.18,25A39.53,39.53,0,0,1,83,34.16c-9.05,2.92-22.23,3-33.23,2.14a71.88,71.88,0,0,1,2.77-10c2.16-.32,4.15.55,6,.85,6.78,1.12,15.08-.43,20.67-2.14Z"/><path class="cls-4" d="M83.86,30.53c8.73,1.15,17.32,2.43,23,6.62C99,39.41,90.59,40.42,81.94,42.27a112.39,112.39,0,0,1-29.18,2.35c-11-.48-23.69.38-32.16-4,7.9-4.61,17.59-7.42,28.54-9,.11,1.81-.55,2.86-.85,4.27,1.73,2.71,6.55,2.77,10.22,2.77,9,0,20.18-.52,26.2-3.41.79-1.83-.69-3.12-.85-4.7Z"/><path class="cls-4" d="M76.83,74.08c-4.94,1.93-13,1.47-18.1,0-.4-.31-.25-1.17-1.07-1.06-1,.8-2.6,2.73-1.49,4.26,1.31.18,1-1.29,1.92-1.49,5.55,2,14.35,2.31,19.81,0,1,.34.65,2,2.34,1.71C81.44,74.55,76.93,69.51,76.83,74.08Zm-41.53.21c-1.23-1.4-1.6-3.66-3-4.91C32.29,71.07,33.55,74.39,35.3,74.29Zm65.18.22a8.23,8.23,0,0,0,2.77-5.13c0-.16-.18-.24-.43-.21C102.43,71.19,100.34,72.66,100.48,74.51ZM35.3,60.21c-3.11,5.67-.53,13.65,5.54,16C50.34,79.9,58,70.8,55.75,62.34c-1.25-4.76-6.36-8.61-13-7.47A11.27,11.27,0,0,0,35.3,60.21Zm44.09,4.05c-1.35,13.8,17,16.41,21.3,5.76a15.17,15.17,0,0,0,0-9c-1.91-4.66-6.1-7.35-12.35-6.4A10.6,10.6,0,0,0,79.39,64.26Zm28.75-25.83c2.5,16,2.77,34.23,4,51.45-5.64,3.75-13.35,6.13-21.51,7.9-8,1.72-16.3,3.84-25.35,3.84-9.53,0-18.93-.43-27-2.14-7.94-1.67-14.54-5.78-20.87-8.32.36-1.81-.09-4.31.63-6.19.53-1.38,2.58-2.38,3.2-4.06,2-5.52.62-11.52-1.92-16.22.57-7.19,1-14.55,1.28-22,.58-.27,1.82.44,3,.85,7.79,2.75,18.78,2.36,29.18,2.78,9,.36,18,.21,26.63-1.71,4-.89,8.06-1.71,11.93-2.56,6.16-1.35,12-1.17,16.82-3.63Z"/><path class="cls-2" d="M81.09,66.82c1.31,10.65,19,10.78,18.75-1.49a9.42,9.42,0,1,0-18.75,1.49Zm7.24-12.16c6.26-.95,10.45,1.74,12.36,6.4a15.21,15.21,0,0,1,0,9c-4.35,10.64-22.65,8-21.3-5.77a10.6,10.6,0,0,1,8.94-9.6Z"/><path class="cls-2" d="M35.72,64.9c-1,12.54,18.67,13.88,18.75.86a9.38,9.38,0,0,0-10.23-9.4A9.15,9.15,0,0,0,35.72,64.9Zm7-10c6.64-1.14,11.75,2.71,13,7.47C58,70.8,50.34,79.9,40.84,76.21c-6.07-2.35-8.65-10.33-5.54-16a11.27,11.27,0,0,1,7.45-5.34Z"/><path class="cls-5" d="M83.65,69c2,5.3,11.72,3.59,13.21-.64,1.94-5.55-2.24-10.25-7-9.61C85.26,59.33,81.61,63.66,83.65,69Zm6.17-12.81a9.37,9.37,0,0,1,10,9.18c.24,12.27-17.44,12.14-18.75,1.49a9.35,9.35,0,0,1,8.73-10.67Z"/><path class="cls-5" d="M38.7,68.75c1.67,4.71,11.09,4.88,13,.64,2.67-6-2.61-11-7.67-10.46C39.58,59.44,37,63.92,38.7,68.75Zm5.54-12.39a9.39,9.39,0,0,1,10.23,9.4c-.08,13-19.74,11.68-18.75-.86a9.15,9.15,0,0,1,8.52-8.54Z"/><path class="cls-2" d="M86.42,69.81c2.64,1.85,7.8,1,8.94-1.92,1-2.51-.13-5.59-2.34-7.47C86.68,58.07,81.78,66.57,86.42,69.81Zm3.4-11.1c4.8-.64,9,4.06,7,9.61-1.49,4.23-11.18,5.94-13.21.64s1.61-9.63,6.17-10.25Z"/><path class="cls-2" d="M40,67.89c1.86,4.63,12.74,4.14,10.65-3.63C48.16,58.62,37.94,59.23,40,67.89Zm4.05-9c5.06-.59,10.34,4.49,7.67,10.46-1.91,4.24-11.33,4.07-13-.64s.88-9.31,5.33-9.82Z"/><path class="cls-3" d="M93,60.42c2.21,1.88,3.32,5,2.34,7.47-1.14,3-6.3,3.77-8.94,1.92-4.64-3.24.26-11.74,6.6-9.39Z"/><path class="cls-3" d="M50.63,64.26C52.72,72,41.84,72.52,40,67.89c-2-8.66,8.18-9.27,10.65-3.63Z"/><path class="cls-3" d="M112.19,63a26.08,26.08,0,0,1,3.2,1.49c.28,4.35.2,9,.85,13a23.46,23.46,0,0,1-3,1.7c-.32-5.45-.56-11-1.07-16.22Z"/><path class="cls-3" d="M17.83,83.26c-1.85-.49-2.75-1.94-4.47-2.56,2.34-2.54,3.67-8.61,2.13-13,.62-.88,2.08-.9,2.77-1.71,3.23,3.79,3.55,14-.43,17.29Z"/><path class="cls-3" d="M14,68.32c1.73,3.36.49,9.08-1.5,11.31-.2-3.61.91-7.77,1.5-11.31Z"/><path class="cls-2" d="M102.82,69.17c.25,0,.38,0,.43.21a8.23,8.23,0,0,1-2.77,5.13c-.14-1.85,2-3.31,2.34-5.34Z"/><path class="cls-2" d="M32.32,69.39c1.38,1.23,1.75,3.5,3,4.9-1.75.1-3-3.22-3-4.9Z"/><path class="cls-2" d="M80.24,77.5c-1.69.34-1.34-1.37-2.35-1.71-5.45,2.31-14.25,2-19.8,0-.94.2-.61,1.67-1.92,1.49-1.11-1.53.51-3.46,1.49-4.26.82-.11.67.75,1.07,1.06,5.05,1.47,13.16,1.93,18.1,0,.1-4.57,4.61.47,3.41,3.42Z"/></g></g></svg>